<svg width="38" height="38" viewBox="0 0 38 38" fill="none" xmlns="http://www.w3.org/2000/svg">
<path d="M34.4375 7.71338H33.8438C33.5154 7.71338 33.25 7.97879 33.25 8.30713C33.25 8.63547 33.5154 8.90088 33.8438 8.90088H34.4375C34.7652 8.90088 35.0312 9.16688 35.0312 9.49463V16.6196C35.0312 16.948 35.2967 17.2134 35.625 17.2134C35.9533 17.2134 36.2188 16.948 36.2188 16.6196V9.49463C36.2188 8.51257 35.4196 7.71338 34.4375 7.71338Z" fill="#AAB2BD"/>
<path d="M34.4375 7.71338C34.4375 6.73132 33.6383 5.93213 32.6562 5.93213C31.6742 5.93213 30.875 6.73132 30.875 7.71338V27.9009H34.4375V7.71338Z" fill="#656D78"/>
<path d="M25.5312 35.628V37.4033H1.78125V4.15332H3.5625H3.56844V35.6221L25.5312 35.628Z" fill="#E6E9ED"/>
<path d="M5.34373 33.8407L27.3184 33.8467V35.6279H25.5312L3.56842 35.622V4.15324V2.37793H5.34373V33.8407Z" fill="#CCD1D9"/>
<path d="M29.0938 4.15324H25.5312V0.59668L29.0938 4.15324Z" fill="#F5F7FA"/>
<path d="M29.0938 4.15324V33.8467H27.3184L5.34375 33.8407V2.37793V0.59668H25.5312V4.15324H29.0938Z" fill="#E6E9ED"/>
<path d="M32.6562 30.8696C32.3279 30.8696 32.0625 30.6042 32.0625 30.2759V29.6821C32.0625 29.3538 32.3279 29.0884 32.6562 29.0884C32.9846 29.0884 33.25 29.3538 33.25 29.6821V30.2759C33.25 30.6042 32.9846 30.8696 32.6562 30.8696Z" fill="#5D9CEC"/>
<path d="M34.4375 13.0571H30.875V14.2446H34.4375V13.0571Z" fill="#545C66"/>
<path d="M24.9375 16.0294H9.5C9.17166 16.0294 8.90625 15.764 8.90625 15.4357C8.90625 15.1073 9.17166 14.8419 9.5 14.8419H24.9375C25.2658 14.8419 25.5312 15.1073 25.5312 15.4357C25.5312 15.764 25.2658 16.0294 24.9375 16.0294ZM24.9375 18.9982H9.5C9.17166 18.9982 8.90625 18.7328 8.90625 18.4044C8.90625 18.0761 9.17166 17.8107 9.5 17.8107H24.9375C25.2658 17.8107 25.5312 18.0761 25.5312 18.4044C25.5312 18.7328 25.2658 18.9982 24.9375 18.9982ZM24.9375 22.0043H9.5C9.17166 22.0043 8.90625 21.7389 8.90625 21.4106C8.90625 21.0822 9.17166 20.8168 9.5 20.8168H24.9375C25.2658 20.8168 25.5312 21.0822 25.5312 21.4106C25.5312 21.7389 25.2658 22.0043 24.9375 22.0043ZM17.2188 24.9731H9.5C9.17166 24.9731 8.90625 24.7077 8.90625 24.3793C8.90625 24.051 9.17166 23.7856 9.5 23.7856H17.2188C17.5471 23.7856 17.8125 24.051 17.8125 24.3793C17.8125 24.7077 17.5471 24.9731 17.2188 24.9731ZM24.9375 30.3168H20.7812C20.4529 30.3168 20.1875 30.0514 20.1875 29.7231C20.1875 29.3947 20.4529 29.1293 20.7812 29.1293H24.9375C25.2658 29.1293 25.5312 29.3947 25.5312 29.7231C25.5312 30.0514 25.2658 30.3168 24.9375 30.3168Z" fill="#CCD1D9"/>
<path d="M21.9688 31.4669C21.6404 31.4669 21.375 31.2015 21.375 30.8732V28.4982C21.375 28.1698 21.6404 27.9044 21.9688 27.9044C22.2971 27.9044 22.5625 28.1698 22.5625 28.4982V30.8732C22.5625 31.2015 22.2971 31.4669 21.9688 31.4669Z" fill="#5D9CEC"/>
<path d="M21.9681 31.467C21.844 31.467 21.7194 31.4284 21.6125 31.3482C21.35 31.1517 21.2966 30.7794 21.4937 30.5176L23.275 28.1426C23.4715 27.8795 23.8438 27.8273 24.1056 28.0238C24.3681 28.2203 24.4215 28.5926 24.2244 28.8545L22.4431 31.2295C22.3274 31.385 22.1492 31.467 21.9681 31.467Z" fill="#5D9CEC"/>
<path d="M23.75 31.4669C23.4217 31.4669 23.1562 31.2015 23.1562 30.8732V28.4982C23.1562 28.1698 23.4217 27.9044 23.75 27.9044C24.0783 27.9044 24.3438 28.1698 24.3438 28.4982V30.8732C24.3438 31.2015 24.0783 31.4669 23.75 31.4669Z" fill="#5D9CEC"/>
<path d="M11.875 11.8851C11.5467 11.8851 11.2812 11.6197 11.2812 11.2914V5.94824C11.2812 5.6199 11.5467 5.35449 11.875 5.35449C12.2033 5.35449 12.4688 5.6199 12.4688 5.94824V11.2914C12.4688 11.6191 12.2033 11.8851 11.875 11.8851Z" fill="#545C66"/>
<path d="M14.25 7.13574H9.5C9.17166 7.13574 8.90625 6.87034 8.90625 6.54199C8.90625 6.21365 9.17166 5.94824 9.5 5.94824H14.25C14.5783 5.94824 14.8438 6.21365 14.8438 6.54199C14.8438 6.87034 14.5783 7.13574 14.25 7.13574ZM14.8438 8.91699H13.6562C13.3279 8.91699 13.0625 8.65159 13.0625 8.32324C13.0625 7.9949 13.3279 7.72949 13.6562 7.72949H14.8438C15.1721 7.72949 15.4375 7.9949 15.4375 8.32324C15.4375 8.65159 15.1721 8.91699 14.8438 8.91699ZM10.0938 8.91699H8.90625C8.57791 8.91699 8.3125 8.65159 8.3125 8.32324C8.3125 7.9949 8.57791 7.72949 8.90625 7.72949H10.0938C10.4221 7.72949 10.6875 7.9949 10.6875 8.32324C10.6875 8.65159 10.4221 8.91699 10.0938 8.91699ZM14.25 11.8851H9.5C9.17166 11.8851 8.90625 11.6197 8.90625 11.2914C8.90625 10.9631 9.17166 10.6976 9.5 10.6976H14.25C14.5783 10.6976 14.8438 10.9631 14.8438 11.2914C14.8438 11.6197 14.5783 11.8851 14.25 11.8851Z" fill="#656D78"/>
<path d="M30.875 27.9009C30.875 27.9193 30.8839 27.9353 30.8857 27.9531C30.8893 27.9929 30.8976 28.0315 30.9094 28.0701C30.9213 28.1093 30.9356 28.1455 30.9546 28.1811C30.9635 28.1966 30.9647 28.215 30.9747 28.2304L32.1599 30.0081C32.1605 30.0087 32.1605 30.0093 32.1611 30.0099L32.1622 30.0117C32.2026 30.0728 32.2543 30.1197 32.3107 30.1595C32.3172 30.1648 32.3202 30.172 32.3267 30.1761C32.3344 30.1809 32.3422 30.1827 32.3499 30.1874C32.3831 30.207 32.4176 30.223 32.4544 30.2361C32.4692 30.242 32.4841 30.2486 32.4995 30.2533C32.5488 30.2664 32.5992 30.2747 32.6497 30.2753C32.6521 30.2753 32.6539 30.2759 32.6557 30.2759H32.6562H32.6568C32.6586 30.2759 32.6604 30.2753 32.6628 30.2753C32.7133 30.2747 32.7637 30.2664 32.813 30.2533C32.8284 30.2486 32.8433 30.2414 32.8581 30.2361C32.8949 30.2236 32.9294 30.207 32.9626 30.1874C32.9703 30.1827 32.9781 30.1809 32.9858 30.1761C32.9929 30.1714 32.9959 30.1643 33.0018 30.1595C33.0582 30.1197 33.1099 30.0728 33.1503 30.0117L33.1514 30.0099C33.152 30.0093 33.152 30.0087 33.1526 30.0081L34.3378 28.2304C34.3484 28.215 34.3496 28.1972 34.3579 28.1811C34.3769 28.1455 34.3918 28.1099 34.4031 28.0701C34.4155 28.0309 34.4232 27.9929 34.4268 27.9531C34.4286 27.9353 34.4375 27.9193 34.4375 27.9009H30.875Z" fill="#E6E9ED"/>
</svg>
