<svg width="38" height="38" viewBox="0 0 38 38" fill="none" xmlns="http://www.w3.org/2000/svg">
<g clip-path="url(#clip0_4825_293)">
<path d="M9.20312 22.5625V33.25H3.85938V30.2812H0.890625V3.5625H9.20312V11.875V15.4375V19V22.5625Z" fill="#E6E9ED"/>
<path d="M9.20312 12.4688H5.04688C4.71853 12.4688 4.45312 12.2033 4.45312 11.875C4.45312 11.5467 4.71853 11.2812 5.04688 11.2812H9.20312C9.53147 11.2812 9.79688 11.5467 9.79688 11.875C9.79688 12.2033 9.53147 12.4688 9.20312 12.4688ZM9.20312 16.0312H5.04688C4.71853 16.0312 4.45312 15.7658 4.45312 15.4375C4.45312 15.1092 4.71853 14.8438 5.04688 14.8438H9.20312C9.53147 14.8438 9.79688 15.1092 9.79688 15.4375C9.79688 15.7658 9.53147 16.0312 9.20312 16.0312ZM9.20312 19.5938H5.04688C4.71853 19.5938 4.45312 19.3283 4.45312 19C4.45312 18.6717 4.71853 18.4062 5.04688 18.4062H9.20312C9.53147 18.4062 9.79688 18.6717 9.79688 19C9.79688 19.3283 9.53147 19.5938 9.20312 19.5938ZM9.20312 23.1562H5.04688C4.71853 23.1562 4.45312 22.8908 4.45312 22.5625C4.45312 22.2342 4.71853 21.9688 5.04688 21.9688H9.20312C9.53147 21.9688 9.79688 22.2342 9.79688 22.5625C9.79688 22.8908 9.53147 23.1562 9.20312 23.1562Z" fill="#CCD1D9"/>
<path d="M3.85938 30.2812V33.25L0.890625 30.2812H3.85938Z" fill="#F5F7FA"/>
<path d="M11.5781 35.625H32.3594V33.8438H32.9531C33.9387 33.8438 34.7344 33.0481 34.7344 32.0625V35.625C34.7344 36.6106 33.9387 37.4062 32.9531 37.4062H10.9844C9.99875 37.4062 9.20312 36.6106 9.20312 35.625C9.20312 34.6453 9.99875 33.8438 10.9844 33.8438H11.5781V35.625Z" fill="#F6BB42"/>
<path d="M32.3594 33.8438H11.5781V35.625H32.3594V33.8438Z" fill="#F5F7FA"/>
<path d="M37.1094 3.5625V11.2812L34.7344 13.6562V3.5625H37.1094Z" fill="#F6BB42"/>
<path d="M32.9531 0.59375H10.9844C9.99875 0.59375 9.20312 1.38938 9.20312 2.375V3.5625V11.875V15.4375V19V22.5625V33.25V35.625C9.20312 34.6453 9.99875 33.8438 10.9844 33.8438H11.5781H32.3594H32.9531C33.9387 33.8438 34.7344 33.0481 34.7344 32.0625V13.6562V3.5625V2.375C34.7344 1.38938 33.9387 0.59375 32.9531 0.59375ZM16.9219 16.6369C15.9363 16.6369 15.1406 15.8413 15.1406 14.8556H18.7031C18.7031 15.8413 17.9016 16.6369 16.9219 16.6369ZM27.6034 16.6369C26.6178 16.6369 25.8222 15.8413 25.8222 14.8556H29.3847C29.3847 15.8413 28.5891 16.6369 27.6034 16.6369Z" fill="#FFCE54"/>
<path d="M18.7002 15.4494C18.4514 15.4494 18.2198 15.2921 18.1373 15.0433L16.3561 9.69837C16.2522 9.38724 16.4202 9.05118 16.7313 8.94668C17.0442 8.84218 17.3791 9.0114 17.4824 9.32252L19.2637 14.6675C19.3676 14.9786 19.1995 15.3146 18.8884 15.4191C18.8255 15.4399 18.7625 15.4494 18.7002 15.4494ZM22.2627 21.9819C21.9343 21.9819 21.6689 21.7165 21.6689 21.3881V7.72949C21.6689 7.40115 21.9343 7.13574 22.2627 7.13574C22.591 7.13574 22.8564 7.40115 22.8564 7.72949V21.3887C22.8564 21.7165 22.591 21.9819 22.2627 21.9819ZM25.824 15.4494C25.7622 15.4494 25.6987 15.4399 25.6364 15.4191C25.3258 15.3146 25.1572 14.9792 25.2611 14.6675L27.0424 9.32252C27.1463 9.01199 27.4788 8.84218 27.7935 8.94668C28.104 9.05118 28.2726 9.38665 28.1687 9.69837L26.3875 15.0433C26.3043 15.2921 26.0728 15.4494 25.824 15.4494Z" fill="#545C66"/>
<path d="M29.3865 15.4494C29.1377 15.4494 28.9061 15.2921 28.8236 15.0433L27.0423 9.69837C26.9384 9.38724 27.1065 9.05118 27.4176 8.94668C27.7305 8.84218 28.0648 9.0114 28.1687 9.32252L29.9499 14.6675C30.0538 14.9786 29.8858 15.3146 29.5747 15.4191C29.5117 15.4399 29.4488 15.4494 29.3865 15.4494Z" fill="#545C66"/>
<path d="M27.0126 21.9818H17.5126C17.1843 21.9818 16.9189 21.7164 16.9189 21.3881C16.9189 21.0597 17.1843 20.7943 17.5126 20.7943H27.0126C27.341 20.7943 27.6064 21.0597 27.6064 21.3881C27.6064 21.7164 27.341 21.9818 27.0126 21.9818Z" fill="#656D78"/>
<path d="M29.39 26.1362H15.1353C14.8069 26.1362 14.5415 25.8708 14.5415 25.5425C14.5415 25.2141 14.8069 24.9487 15.1353 24.9487H29.39C29.7183 24.9487 29.9838 25.2141 29.9838 25.5425C29.9838 25.8708 29.7183 26.1362 29.39 26.1362ZM25.8275 27.9169H18.6989C18.3706 27.9169 18.1052 27.6515 18.1052 27.3231C18.1052 26.9948 18.3706 26.7294 18.6989 26.7294H25.8275C26.1558 26.7294 26.4213 26.9948 26.4213 27.3231C26.4213 27.6515 26.1558 27.9169 25.8275 27.9169Z" fill="#F6BB42"/>
<path d="M15.1376 15.4494C15.0759 15.4494 15.0123 15.4399 14.95 15.4191C14.6395 15.3146 14.4708 14.9791 14.5748 14.6674L16.356 9.32247C16.4599 9.01194 16.793 8.84212 17.1071 8.94662C17.4176 9.05112 17.5863 9.38659 17.4823 9.69831L15.7011 15.0432C15.618 15.292 15.3864 15.4494 15.1376 15.4494Z" fill="#545C66"/>
<path d="M18.7001 14.2619H15.1376C14.8093 14.2619 14.5439 14.5273 14.5439 14.8557C14.5439 16.1649 15.6091 17.2307 16.9189 17.2307C18.2287 17.2307 19.2939 16.1649 19.2939 14.8557C19.2939 14.5273 19.0285 14.2619 18.7001 14.2619ZM29.3864 14.2619H25.8239C25.4956 14.2619 25.2302 14.5273 25.2302 14.8557C25.2302 16.1649 26.2954 17.2307 27.6052 17.2307C28.915 17.2307 29.9802 16.1649 29.9802 14.8557C29.9802 14.5273 29.7148 14.2619 29.3864 14.2619ZM27.6052 10.1045H16.9189C16.5905 10.1045 16.3251 9.83909 16.3251 9.51074C16.3251 9.1824 16.5905 8.91699 16.9189 8.91699H27.6052C27.9335 8.91699 28.1989 9.1824 28.1989 9.51074C28.1989 9.83909 27.9335 10.1045 27.6052 10.1045Z" fill="#656D78"/>
</g>
<defs>
<clipPath id="clip0_4825_293">
<rect width="38" height="38" fill="white"/>
</clipPath>
</defs>
</svg>
