<svg width="38" height="38" viewBox="0 0 38 38" fill="none" xmlns="http://www.w3.org/2000/svg">
<g clip-path="url(#clip0_4825_1104)">
<path d="M23.6603 6.02955C18.7916 1.15486 10.9006 1.15486 6.02595 6.02955C1.1572 10.8983 1.1572 18.7952 6.02595 23.658C7.06501 24.6971 8.24005 25.5164 9.49939 26.1042L9.51186 26.0805V24.9464C9.51186 24.2927 10.0403 23.7589 10.6994 23.7589H13.9472V10.6964H15.7284V23.7589H19.0119C19.665 23.7589 20.1994 24.2927 20.1994 24.9464V26.1042C21.4516 25.5105 22.6219 24.6971 23.6609 23.658C28.5285 18.7898 28.5285 10.8983 23.6603 6.02955Z" fill="#5D9CEC"/>
<path d="M20.1988 24.947V26.1048C16.8204 27.7074 12.8779 27.7139 9.49884 26.1048L9.51131 26.0811V24.947C9.51131 24.2933 10.0397 23.7595 10.6988 23.7595H13.9466H15.7279H19.0113C19.6638 23.7595 20.1988 24.2933 20.1988 24.947Z" fill="#656D78"/>
<path d="M15.7272 10.697H13.946V23.7595H15.7272V10.697Z" fill="#CCD1D9"/>
<path d="M5.94226 16.6345H10.6923C10.6923 17.9467 9.62351 19.0095 8.31726 19.0095C7.00507 19.0095 5.94226 17.9467 5.94226 16.6345Z" fill="#FFCE54"/>
<path d="M8.31726 10.697L10.6923 16.6345H5.94226L8.31726 10.697Z" fill="#5D9CEC"/>
<path d="M15.7272 8.62012V10.1045H13.946V8.62012C13.946 8.1273 14.3438 7.72949 14.8366 7.72949C15.3294 7.72949 15.7272 8.1273 15.7272 8.62012Z" fill="#CCD1D9"/>
<path d="M21.3916 10.697L23.7666 16.6345H19.0166L21.3916 10.697Z" fill="#5D9CEC"/>
<path d="M26.4807 29.833L27.3172 28.9958L28.9976 27.3155L29.8347 26.4789L36.7104 33.3545C37.6372 34.2808 37.6372 35.7829 36.7104 36.7086C35.7841 37.6408 34.2819 37.6408 33.3557 36.7086L26.4807 29.833Z" fill="#656D78"/>
<path d="M28.9976 27.3155L27.3173 28.9958L24.0457 25.7243C24.3485 25.4689 24.6395 25.2018 24.9185 24.9227C25.2035 24.6377 25.4713 24.3462 25.7207 24.0439L28.9976 27.3155Z" fill="#CCD1D9"/>
<path d="M6.0254 6.02955C1.15665 10.8983 1.15665 18.7952 6.0254 23.658C7.06446 24.6971 8.23949 25.5164 9.49883 26.1042C12.8773 27.7133 16.8198 27.7068 20.1988 26.1042C21.451 25.5105 22.6213 24.6971 23.6604 23.658C28.5285 18.7892 28.5285 10.8983 23.6604 6.02955C18.791 1.15486 10.9001 1.15486 6.0254 6.02955ZM4.76665 4.76486C10.336 -0.798574 19.3551 -0.798574 24.9179 4.76486C30.2023 10.0492 30.4754 18.4449 25.7201 24.0439C25.4707 24.3467 25.2035 24.6377 24.9179 24.9227C24.6389 25.2017 24.3479 25.4689 24.0451 25.7242C18.452 30.4742 10.0564 30.207 4.76605 24.9227C-0.796791 19.3539 -0.796791 10.3342 4.76665 4.76486Z" fill="#E6E9ED"/>
<path d="M19.0137 17.8225C18.9401 17.8225 18.8652 17.8095 18.7934 17.7804C18.4888 17.6587 18.3404 17.3131 18.4621 17.0085L20.8377 11.0704C20.9588 10.7646 21.3067 10.6168 21.6096 10.7391C21.9142 10.8608 22.0626 11.2064 21.9409 11.511L19.5653 17.4491C19.4727 17.6812 19.2494 17.8225 19.0137 17.8225Z" fill="#CCD1D9"/>
<path d="M23.7636 17.8225C23.5285 17.8225 23.3053 17.6818 23.212 17.4491L20.8376 11.511C20.7159 11.2064 20.8644 10.8608 21.169 10.7391C21.4706 10.6168 21.8191 10.7646 21.9408 11.0704L24.3152 17.0085C24.437 17.3131 24.2885 17.6587 23.9839 17.7804C23.9121 17.8089 23.8373 17.8225 23.7636 17.8225Z" fill="#CCD1D9"/>
<path d="M23.7637 16.6351H19.0137C18.6853 16.6351 18.4199 16.9005 18.4199 17.2289C18.4199 18.8659 19.7517 20.1976 21.3887 20.1976C23.0256 20.1976 24.3574 18.8659 24.3574 17.2289C24.3574 16.9005 24.092 16.6351 23.7637 16.6351Z" fill="#FFCE54"/>
<path d="M5.93867 17.8225C5.86505 17.8225 5.79024 17.8095 5.71839 17.7804C5.4138 17.6587 5.26536 17.3131 5.38708 17.0085L7.76267 11.0704C7.8838 10.7646 8.23174 10.6168 8.53455 10.7391C8.83914 10.8608 8.98758 11.2064 8.86586 11.511L6.49027 17.4491C6.39705 17.6812 6.1738 17.8225 5.93867 17.8225Z" fill="#CCD1D9"/>
<path d="M10.6887 17.8225C10.4536 17.8225 10.2303 17.6818 10.1371 17.4491L7.76269 11.511C7.64097 11.2064 7.78941 10.8608 8.094 10.7391C8.39563 10.6168 8.74416 10.7646 8.86588 11.0704L11.2403 17.0085C11.362 17.3131 11.2136 17.6587 10.909 17.7804C10.8371 17.8089 10.7623 17.8225 10.6887 17.8225Z" fill="#CCD1D9"/>
<path d="M10.6887 16.6351H5.93866C5.61032 16.6351 5.34491 16.9005 5.34491 17.2289C5.34491 18.8659 6.67669 20.1976 8.31366 20.1976C9.95063 20.1976 11.2824 18.8659 11.2824 17.2289C11.2824 16.9005 11.017 16.6351 10.6887 16.6351Z" fill="#FFCE54"/>
<path d="M13.946 11.2914H8.31723H8.05658H8.01501C7.52814 11.2914 7.12439 10.8936 7.12439 10.4008C7.12439 9.90794 7.52814 9.51013 8.01501 9.51013H8.05658H13.9466H15.7278H21.6713C22.1641 9.51013 22.5619 9.90794 22.5619 10.4008C22.5619 10.8936 22.1641 11.2914 21.6713 11.2914H21.3922H15.7278H13.946Z" fill="#E6E9ED"/>
</g>
<defs>
<clipPath id="clip0_4825_1104">
<rect width="38" height="38" fill="white"/>
</clipPath>
</defs>
</svg>
