<svg width="38" height="38" viewBox="0 0 38 38" fill="none" xmlns="http://www.w3.org/2000/svg">
<path d="M18.997 0.301025C22.6082 0.301025 25.5277 3.22762 25.5283 6.83287C25.5283 10.4441 22.6088 13.3635 18.9964 13.3635C15.3912 13.3635 12.4658 10.4441 12.4658 6.83287C12.4658 3.22703 15.3912 0.301025 18.997 0.301025Z" fill="#ED5565"/>
<path d="M23.6164 15.2243C23.8468 14.9928 24.2238 14.9922 24.4548 15.2232L32.0115 22.7798C32.2424 23.0108 32.243 23.389 32.0121 23.6206L30.7509 24.8847C30.52 25.1156 30.1423 25.1174 29.9108 24.8864L29.9096 24.8858C29.678 24.6555 29.2992 24.279 29.0682 24.0475L23.1931 18.1664C22.9621 17.9354 22.5857 17.5584 22.3547 17.328C22.1243 17.097 22.1249 16.72 22.3547 16.4884L23.6164 15.2243ZM15.6441 16.4825C15.8751 16.7135 15.8751 17.0911 15.6441 17.3221L15.6406 17.3262C15.4096 17.5572 15.032 17.9348 14.801 18.1658L8.92587 24.0415C8.6943 24.2731 8.31608 24.6495 8.08452 24.8799L8.08333 24.8805C7.85177 25.1109 7.47296 25.1103 7.2414 24.8799L5.98324 23.6247C5.75168 23.3937 5.56287 23.2037 5.56287 23.2026C5.56287 23.2014 5.75168 23.0108 5.98265 22.7798L13.5446 15.2232C13.7756 14.9922 14.1532 14.9922 14.3842 15.2232L15.6441 16.4825Z" fill="#E6E9ED"/>
<path d="M13.3327 28.4448C13.914 29.0261 13.914 29.9648 13.3327 30.5466L12.9111 30.9688C12.3352 31.5447 11.3905 31.5447 10.8152 30.9688C10.2339 30.3869 10.2339 29.4482 10.8152 28.8669L11.0236 28.6532L11.232 28.4448C11.8127 27.8688 12.7508 27.8688 13.3327 28.4448Z" fill="#EAC6BB"/>
<path d="M15.4286 30.5466C16.0099 31.1232 16.0099 32.0666 15.4286 32.6426L15.013 33.0641C14.4311 33.646 13.4924 33.646 12.9111 33.0641C12.3351 32.4876 12.3351 31.5441 12.9111 30.9688L13.3326 30.5466C13.9145 29.9648 14.8526 29.9648 15.4286 30.5466ZM17.5305 32.6432C18.1117 33.2244 18.1117 34.1632 17.5305 34.7444L17.1089 35.166C16.5318 35.7431 15.5883 35.7431 15.013 35.166C14.4311 34.5847 14.4311 33.6466 15.013 33.0647L15.4345 32.6432C16.0105 32.0666 16.9486 32.0666 17.5305 32.6432Z" fill="#EAC6BB"/>
<path d="M19.6318 34.7444C20.2083 35.3269 20.2083 36.265 19.6323 36.841L19.4186 37.0547V37.0607L19.2108 37.2625C18.6289 37.8444 17.6902 37.8444 17.1089 37.2619C16.5318 36.686 16.5318 35.7425 17.1089 35.166L17.5305 34.7444C18.1123 34.1626 19.0505 34.1626 19.6318 34.7444ZM22.7733 17.746L29.488 24.4666L27.3927 28.2375L21.942 22.781C21.4724 22.3184 20.7248 22.3184 20.2617 22.7816L17.5305 25.5128C16.9533 26.0888 16.0099 26.0888 15.4345 25.5128C14.8527 24.9315 14.8533 23.9928 15.4345 23.4109L15.6423 23.2031L19.003 19.8484L19.4192 19.4269L22.7733 17.746Z" fill="#EAC6BB"/>
<path d="M20.2617 22.781C20.7248 22.3178 21.4724 22.3178 21.942 22.7804L27.3926 28.2369L27.3986 28.2363L28.0285 28.8663C28.6039 29.4482 28.6039 30.3869 28.0285 30.9688C27.4467 31.5447 26.5079 31.55 25.9267 30.9688C26.5079 31.55 26.5079 32.4882 25.9267 33.0635C25.3448 33.6454 24.4067 33.646 23.8307 33.0641C24.4073 33.646 24.4073 34.5847 23.8248 35.1654C23.2489 35.7479 22.3107 35.7473 21.7289 35.1654C22.3107 35.7473 22.3107 36.686 21.7289 37.2613C21.1476 37.8432 20.2089 37.8438 19.627 37.2679L19.4192 37.06V37.0541L19.6329 36.8404C20.2089 36.2638 20.2089 35.3263 19.6323 34.7438C19.051 34.1625 18.1123 34.1625 17.531 34.7438C18.1123 34.1625 18.1123 33.2238 17.531 32.6426C16.9492 32.066 16.0104 32.066 15.4351 32.6426L15.0135 33.0641L15.4292 32.6426C16.0104 32.066 16.0104 31.1225 15.4292 30.5466C14.8526 29.9647 13.9145 29.9647 13.3332 30.5466C13.9145 29.9647 13.9145 29.026 13.3332 28.4447C12.7514 27.8682 11.8126 27.8682 11.2319 28.4447L11.0235 28.6531L8.50604 24.4613L15.2214 17.7454L18.997 19.8413L19.0035 19.8472L15.6429 23.2019L15.4351 23.4097C14.8538 23.9916 14.8532 24.9303 15.4351 25.5116C16.011 26.0875 16.9545 26.0875 17.531 25.5116L20.2617 22.781Z" fill="#D3B1A9"/>
<path d="M19.0095 9.80226C18.6812 9.80226 18.4158 9.53686 18.4158 9.20851V3.86536C18.4158 3.53701 18.6812 3.27161 19.0095 3.27161C19.3379 3.27161 19.6033 3.53701 19.6033 3.86536V9.20851C19.6033 9.53686 19.3373 9.80226 19.0095 9.80226Z" fill="#F6BB42"/>
<path d="M21.3845 9.80225L16.6345 9.80165C16.3062 9.80165 16.0408 9.53565 16.0408 9.2079C16.0408 8.87956 16.3068 8.61415 16.6345 8.61415L21.3845 8.61475C21.7129 8.61475 21.9783 8.88075 21.9783 9.2085C21.9783 9.53684 21.7117 9.80225 21.3845 9.80225ZM21.3845 5.05284L16.6345 5.05225C16.3062 5.05225 16.0408 4.78625 16.0408 4.4585C16.0408 4.13015 16.3068 3.86475 16.6345 3.86475L21.3845 3.86534C21.7129 3.86534 21.9783 4.13134 21.9783 4.45909C21.9783 4.78743 21.7117 5.05284 21.3845 5.05284ZM21.9783 6.8335H20.7908C20.4624 6.8335 20.197 6.56809 20.197 6.23975C20.197 5.9114 20.4624 5.646 20.7908 5.646H21.9783C22.3066 5.646 22.572 5.9114 22.572 6.23975C22.572 6.56809 22.306 6.8335 21.9783 6.8335ZM17.2283 6.83409H16.0408C15.7124 6.83409 15.447 6.56868 15.447 6.24034C15.447 5.912 15.7124 5.64659 16.0408 5.64659H17.2283C17.5566 5.64659 17.822 5.912 17.822 6.24034C17.822 6.56868 17.556 6.83409 17.2283 6.83409Z" fill="#FFCE54"/>
<path d="M6.40714 24.0415C6.17617 24.2725 5.79854 24.2725 5.56757 24.0409L4.30586 22.7792C4.07489 22.5482 4.07489 22.1706 4.30586 21.9396L12.705 13.5464C12.936 13.3154 13.3136 13.3154 13.5446 13.5464L14.8004 14.8022C15.0314 15.0331 15.0314 15.4108 14.8004 15.6417L6.40714 24.0415ZM33.6941 21.9396C33.9251 22.1706 33.9251 22.5482 33.6941 22.7792L32.4318 24.0415C32.2008 24.2725 31.8232 24.2725 31.5922 24.0409L23.1984 15.6423C22.9674 15.4114 22.9674 15.0337 23.1984 14.8028L24.4548 13.5464C24.6857 13.3154 25.0634 13.3154 25.2943 13.5464L33.6941 21.9396Z" fill="#656D78"/>
</svg>
