<svg width="296" height="168" viewBox="0 0 296 168" fill="none" xmlns="http://www.w3.org/2000/svg">
<g clip-path="url(#clip0_378_7897)">
<rect x="0.5" width="295" height="168" rx="8" fill="#04B6F5" fill-opacity="0.08"/>
<path d="M132.988 127.502C134.328 133.531 141.238 154.167 145.88 153.136C150.523 152.104 151.447 129.854 149.799 123.767C148.377 118.52 144.205 115.818 139.564 116.848C134.922 117.88 131.809 122.195 132.988 127.502Z" fill="white"/>
<path d="M141.497 117.368C140.916 117.368 140.319 117.436 139.723 117.567C135.202 118.573 132.672 122.684 133.707 127.342C135.371 134.826 141.925 152.434 145.539 152.436C145.602 152.436 145.661 152.429 145.72 152.416C146.11 152.33 146.526 151.937 146.923 151.28C149.895 146.363 150.556 129.378 149.088 123.959C147.987 119.893 145.078 117.368 141.497 117.368ZM145.539 153.909H145.538C139.671 153.906 132.962 130.778 132.27 127.662C131.069 122.259 134.135 117.301 139.404 116.13C140.105 115.975 140.809 115.895 141.497 115.895C145.773 115.895 149.227 118.838 150.51 123.573C151.919 128.779 151.563 146.452 148.184 152.042C147.564 153.067 146.843 153.676 146.041 153.854C145.877 153.891 145.708 153.909 145.539 153.909Z" fill="#1A172D"/>
<path d="M72.0413 118.444C72.0413 139.395 89.0253 183.267 109.976 183.267C130.928 183.267 147.912 139.395 147.912 118.444C147.912 100 130.928 95.5565 109.976 95.5565C89.0253 95.5565 72.0413 100 72.0413 118.444Z" fill="url(#paint0_linear_378_7897)"/>
<path d="M72.0413 118.444C72.0413 139.395 89.0253 183.267 109.976 183.267C130.928 183.267 147.912 139.395 147.912 118.444C147.912 100 130.928 95.5565 109.976 95.5565C89.0253 95.5565 72.0413 100 72.0413 118.444Z" fill="white"/>
<path d="M109.976 96.293C84.5977 96.293 72.7773 103.332 72.7773 118.443C72.7773 139.546 89.9965 182.531 109.976 182.531C129.957 182.531 147.176 139.546 147.176 118.443C147.176 103.332 135.356 96.293 109.976 96.293ZM109.976 184.004C88.8133 184.004 71.3045 140.597 71.3045 118.443C71.3045 97.269 93.3755 94.8202 109.976 94.8202C126.578 94.8202 148.648 97.269 148.648 118.443C148.648 140.597 131.141 184.004 109.976 184.004Z" fill="#1A172D"/>
<path d="M106.307 178.443C106.228 178.443 106.145 178.431 106.066 178.402C101.99 176.984 97.8237 173.454 93.6839 167.913C93.4407 167.587 93.5075 167.124 93.8335 166.882C94.1599 166.639 94.6212 166.706 94.8644 167.03C98.7693 172.259 102.81 175.711 106.55 177.012C106.934 177.145 107.136 177.566 107.003 177.948C106.897 178.253 106.612 178.443 106.307 178.443Z" fill="#1A172D"/>
<path d="M72.6592 115.443C72.6592 127.416 89.3261 137.122 109.886 137.122C130.445 137.122 147.113 127.416 147.113 115.443C147.113 103.471 130.445 93.7655 109.886 93.7655C89.3261 93.7655 72.6592 103.471 72.6592 115.443Z" fill="#EFF5FF"/>
<path d="M109.886 94.502C89.7648 94.502 73.396 103.897 73.396 115.443C73.396 126.991 89.7648 136.386 109.886 136.386C130.007 136.386 146.376 126.991 146.376 115.443C146.376 103.897 130.007 94.502 109.886 94.502ZM109.886 137.859C88.9528 137.859 71.9232 127.803 71.9232 115.443C71.9232 103.085 88.9528 93.0292 109.886 93.0292C130.819 93.0292 147.849 103.085 147.849 115.443C147.849 127.803 130.819 137.859 109.886 137.859Z" fill="#1A172D"/>
<path d="M65.2363 86.2003C65.2363 110.797 85.1768 130.738 109.774 130.738C134.372 130.738 154.312 110.797 154.312 86.2003C154.312 61.6024 134.372 41.6626 109.774 41.6626C85.1768 41.6626 65.2363 61.6024 65.2363 86.2003Z" fill="white"/>
<path d="M109.774 42.3989C85.6221 42.3989 65.9728 62.0481 65.9728 86.2002C65.9728 110.352 85.6221 130.002 109.774 130.002C133.927 130.002 153.575 110.352 153.575 86.2002C153.575 62.0481 133.927 42.3989 109.774 42.3989ZM109.774 131.474C84.8102 131.474 64.5 111.164 64.5 86.2002C64.5 61.2361 84.8102 40.9261 109.774 40.9261C134.739 40.9261 155.048 61.2361 155.048 86.2002C155.048 111.164 134.739 131.474 109.774 131.474Z" fill="#1A172D"/>
<path d="M82.0486 115.225C81.8626 115.225 81.6765 115.155 81.5331 115.014C73.715 107.351 69.4097 97.1167 69.4097 86.2002C69.4097 82.3307 69.9589 78.5033 71.0416 74.8223C71.1567 74.4315 71.5686 74.2116 71.9563 74.3235C72.3461 74.4384 72.5696 74.8478 72.4549 75.2376C71.4114 78.7831 70.8825 82.472 70.8825 86.2002C70.8825 96.718 75.0313 106.578 82.5641 113.963C82.8544 114.247 82.859 114.714 82.5744 115.003C82.4302 115.151 82.2392 115.225 82.0486 115.225Z" fill="#1A172D"/>
<path d="M94.3589 123.445C94.263 123.445 94.1656 123.426 94.0716 123.386C91.2729 122.2 88.6019 120.689 86.1326 118.9C85.8039 118.662 85.7307 118.2 85.9688 117.871C86.2078 117.542 86.6669 117.47 86.9979 117.708C89.3762 119.432 91.9498 120.887 94.6469 122.03C95.0217 122.189 95.1961 122.621 95.0374 122.996C94.9185 123.276 94.6453 123.445 94.3589 123.445Z" fill="#1A172D"/>
<path d="M151.694 95.7803C142.367 107.81 129.256 115.127 114.798 116.37C110.905 116.705 107.371 112.897 107.371 108.368V95.0272C107.371 89.0712 110.764 84.1589 115.726 82.9296C126.183 80.3384 135.679 74.7005 143.344 66.5294C145.159 64.5961 148.271 65.3855 149.48 68.1328C151.955 73.7619 153.609 79.8828 154.244 86.2581C154.598 89.8105 153.657 93.2481 151.694 95.7803Z" fill="#EFF5FF"/>
<path d="M145.763 66.1986C145.044 66.1986 144.394 66.4872 143.881 67.0332C136.141 75.2829 126.467 81.0268 115.903 83.6445C111.241 84.8001 108.108 89.3737 108.108 95.0273V108.368C108.108 110.255 108.803 112.135 110.014 113.525C111.298 114.999 113.028 115.786 114.735 115.637C128.99 114.41 141.909 107.199 151.112 95.3288C152.968 92.935 153.842 89.6565 153.511 86.3309C152.895 80.151 151.312 74.1282 148.806 68.4294C148.21 67.0744 147.016 66.1986 145.763 66.1986ZM114.32 117.128C112.337 117.128 110.363 116.167 108.903 114.492C107.44 112.814 106.635 110.639 106.635 108.368V95.0273C106.635 88.6854 110.218 83.5365 115.55 82.2149C125.837 79.6659 135.263 74.0673 142.808 66.0258C143.594 65.1872 144.643 64.7258 145.763 64.7258C147.599 64.7258 149.323 65.9472 150.154 67.8373C152.723 73.6775 154.345 79.8505 154.977 86.1855C155.345 89.8813 154.36 93.5427 152.277 96.2311C142.818 108.43 129.531 115.842 114.862 117.105C114.681 117.12 114.499 117.128 114.32 117.128Z" fill="#1A172D"/>
<path d="M112.589 113.752C127.047 112.508 140.158 105.192 149.485 93.1607C151.448 90.6294 152.388 87.1919 152.035 83.6395C151.413 77.4016 149.813 71.4112 147.425 65.8843C148.269 66.3183 149.016 67.0782 149.48 68.1338C151.955 73.7619 153.609 79.8828 154.244 86.2581C154.597 89.8115 153.657 93.2481 151.694 95.7803C142.367 107.81 129.256 115.127 114.798 116.371C112.179 116.596 109.727 114.942 108.4 112.458C109.619 113.379 111.075 113.881 112.589 113.752Z" fill="#1A172D"/>
<path d="M70.4434 144.131C70.4434 149.855 75.0836 154.495 80.8076 154.495C86.5316 154.495 91.172 149.855 91.172 144.131C91.172 138.407 86.5316 133.767 80.8076 133.767C75.0836 133.767 70.4434 138.407 70.4434 144.131Z" fill="#EFF5FF"/>
<path d="M80.8079 134.504C75.4988 134.504 71.1797 138.823 71.1797 144.131C71.1797 149.44 75.4988 153.759 80.8079 153.759C86.1165 153.759 90.4352 149.44 90.4352 144.131C90.4352 138.823 86.1165 134.504 80.8079 134.504ZM80.8079 155.232C74.6869 155.232 69.7069 150.252 69.7069 144.131C69.7069 138.011 74.6869 133.031 80.8079 133.031C86.9289 133.031 91.908 138.011 91.908 144.131C91.908 150.252 86.9289 155.232 80.8079 155.232Z" fill="#1A172D"/>
<path d="M71.5453 148.727C72.8609 156.521 83.8073 173.647 88.4493 172.616C93.0913 171.584 88.9498 150.489 87.61 144.462C86.4306 139.155 82.0172 136.512 77.3752 137.543C72.7332 138.575 70.6402 143.367 71.5453 148.727Z" fill="white"/>
<path d="M79.3472 138.06C78.75 138.06 78.1401 138.129 77.5349 138.262C73.4939 139.161 71.3787 143.317 72.2715 148.604C73.4908 155.83 83.7495 171.924 88.0299 171.925C88.1215 171.925 88.209 171.915 88.2899 171.896C91.1764 171.255 89.7239 157.365 86.8915 144.621C86.0054 140.635 83.0441 138.06 79.3472 138.06ZM88.0299 173.397C82.5559 173.396 72.0859 156.354 70.819 148.85C69.8031 142.832 72.4334 137.888 77.2158 136.826C77.925 136.668 78.6422 136.587 79.3472 136.587C83.7618 136.587 87.2877 139.615 88.3286 144.302C90.1819 152.638 93.9183 172.154 88.6094 173.335C88.4237 173.376 88.2285 173.397 88.0299 173.397Z" fill="#1A172D"/>
<path d="M83.8511 165.068C83.6305 165.068 83.4123 164.97 83.2669 164.782C81.5291 162.525 79.7644 159.824 78.2977 157.177C78.1006 156.821 78.2295 156.374 78.5854 156.176C78.9409 155.98 79.3886 156.108 79.5864 156.464C81.0179 159.048 82.7396 161.684 84.434 163.882C84.6822 164.204 84.622 164.668 84.2994 164.915C84.166 165.018 84.0076 165.068 83.8511 165.068Z" fill="#1A172D"/>
<path d="M109.939 57.2871C108.673 57.2871 107.44 57.1614 106.274 56.913C105.875 56.8286 105.622 56.4378 105.706 56.0391C105.79 55.6415 106.182 55.3872 106.58 55.4726C107.645 55.6994 108.775 55.8143 109.939 55.8143C110.345 55.8143 110.675 56.1442 110.675 56.5507C110.675 56.9572 110.345 57.2871 109.939 57.2871Z" fill="#1A172D"/>
<path d="M104.138 56.2405C104.047 56.2405 103.954 56.2238 103.864 56.1875C101.253 55.1427 99.3407 53.4245 98.4796 51.3478C98.3235 50.9727 98.5022 50.5417 98.8772 50.3856C99.2533 50.2295 99.6843 50.4072 99.8405 50.7832C100.547 52.4897 102.171 53.9233 104.412 54.8207C104.789 54.9709 104.973 55.4 104.821 55.778C104.707 56.0657 104.43 56.2405 104.138 56.2405Z" fill="#1A172D"/>
<path d="M101.649 48.7782C101.649 51.444 105.361 53.6051 109.939 53.6051C114.518 53.6051 118.229 51.444 118.229 48.7782C118.229 46.1114 114.518 43.9503 109.939 43.9503C105.361 43.9503 101.649 46.1114 101.649 48.7782Z" fill="#EFF5FF"/>
<path d="M109.939 44.6868C105.845 44.6868 102.385 46.5602 102.385 48.7773C102.385 50.9953 105.845 52.8687 109.939 52.8687C114.033 52.8687 117.492 50.9953 117.492 48.7773C117.492 46.5602 114.033 44.6868 109.939 44.6868ZM109.939 54.3416C104.877 54.3416 100.913 51.8977 100.913 48.7773C100.913 45.6579 104.877 43.214 109.939 43.214C115 43.214 118.965 45.6579 118.965 48.7773C118.965 51.8977 115 54.3416 109.939 54.3416Z" fill="#1A172D"/>
<path d="M111.931 31.0898H107.947V48.6555C107.947 49.2966 108.839 49.816 109.939 49.816C111.04 49.816 111.931 49.2966 111.931 48.6555V31.0898Z" fill="white"/>
<path d="M108.684 31.8261V48.6554C108.719 48.7644 109.162 49.0796 109.939 49.0796C110.716 49.0796 111.159 48.7644 111.197 48.6446L111.195 31.8261H108.684ZM109.939 50.5524C108.384 50.5524 107.211 49.7364 107.211 48.6554V30.3533H112.668V48.6554C112.668 49.7364 111.494 50.5524 109.939 50.5524Z" fill="#1A172D"/>
<path d="M104.018 31.5954C104.018 34.866 106.669 37.5171 109.939 37.5171C113.21 37.5171 115.861 34.866 115.861 31.5954C115.861 28.3248 113.21 25.6737 109.939 25.6737C106.669 25.6737 104.018 28.3248 104.018 31.5954Z" fill="white"/>
<path d="M109.939 26.4102C107.081 26.4102 104.755 28.7372 104.755 31.5955C104.755 34.4547 107.081 36.7807 109.939 36.7807C112.798 36.7807 115.124 34.4547 115.124 31.5955C115.124 28.7372 112.798 26.4102 109.939 26.4102ZM109.939 38.2535C106.269 38.2535 103.282 35.2667 103.282 31.5955C103.282 27.9242 106.269 24.9374 109.939 24.9374C113.61 24.9374 116.597 27.9242 116.597 31.5955C116.597 35.2667 113.61 38.2535 109.939 38.2535Z" fill="#1A172D"/>
<path d="M111.934 32.3318C111.528 32.3318 111.198 32.0019 111.198 31.5954C111.198 30.9022 110.633 30.3386 109.939 30.3386C109.532 30.3386 109.203 30.0087 109.203 29.6022C109.203 29.1957 109.532 28.8658 109.939 28.8658C111.445 28.8658 112.67 30.0902 112.67 31.5954C112.67 32.0019 112.341 32.3318 111.934 32.3318Z" fill="#1A172D"/>
<path d="M141.697 93.0371C142.047 92.8348 142.487 93.1235 142.427 93.5241C141.99 96.4589 139.651 99.8572 136.831 101.485C133.965 103.14 131.595 102.393 131.213 99.868C131.148 99.4359 131.362 99.0039 131.74 98.785L141.697 93.0371Z" fill="#1A172D"/>
<path d="M136.831 100.328C138.39 99.4281 139.764 97.8885 140.612 96.2655C139.607 95.9493 138.285 96.6543 136.831 97.4938C135.376 98.3343 134.053 99.1561 133.048 100.632C133.896 101.277 135.271 101.229 136.831 100.328Z" fill="white"/>
<path d="M124.073 93.9414C124.073 95.858 122.719 98.1929 121.049 99.1571C119.379 100.121 118.025 99.3495 118.025 97.4329C118.025 95.5163 119.379 93.1814 121.049 92.2172C122.719 91.253 124.073 92.0247 124.073 93.9414Z" fill="#1A172D"/>
<path d="M148.517 79.8279C148.517 81.7446 147.163 84.0805 145.493 85.0446C143.822 86.0088 142.469 85.2371 142.469 83.3205C142.469 81.4039 143.822 79.068 145.493 78.1038C147.163 77.1396 148.517 77.9113 148.517 79.8279Z" fill="#1A172D"/>
<path d="M123.255 93.6526C123.255 94.3763 122.744 95.259 122.112 95.6233C121.482 95.9875 120.969 95.6959 120.969 94.9713C120.969 94.2477 121.482 93.365 122.112 93.0007C122.744 92.6364 123.255 92.928 123.255 93.6526Z" fill="white"/>
<path d="M147.714 79.7425C147.714 80.4672 147.202 81.3489 146.571 81.7131C145.939 82.0784 145.428 81.7858 145.428 81.0622C145.428 80.3376 145.939 79.4558 146.571 79.0915C147.202 78.7273 147.714 79.0189 147.714 79.7425Z" fill="white"/>
<path d="M127.881 159.238L129.599 160.956L131.317 159.238L129.599 157.52L127.881 159.238ZM122.971 159.238L124.69 160.956L126.408 159.238L124.69 157.52L122.971 159.238ZM132.79 154.329L134.508 156.047L136.227 154.329L134.508 152.61L132.79 154.329ZM127.881 154.329L129.599 156.047L131.317 154.329L129.599 152.61L127.881 154.329ZM122.971 154.329L124.69 156.047L126.408 154.329L124.69 152.61L122.971 154.329ZM132.79 149.419L134.508 151.138L136.227 149.419L134.508 147.701L132.79 149.419ZM127.881 149.419L129.599 151.138L131.317 149.419L129.599 147.701L127.881 149.419ZM137.699 144.51L139.418 146.228L141.136 144.51L139.418 142.792L137.699 144.51ZM132.79 144.51L134.508 146.228L136.227 144.51L134.508 142.792L132.79 144.51ZM127.881 144.51L129.599 146.228L131.317 144.51L129.599 142.792L127.881 144.51ZM137.699 139.601L139.418 141.319L141.136 139.601L139.418 137.882L137.699 139.601ZM132.79 139.601L134.508 141.319L136.227 139.601L134.508 137.882L132.79 139.601ZM137.699 134.691L139.418 136.409L141.136 134.691L139.418 132.973L137.699 134.691ZM118.062 173.966L119.78 175.684L121.499 173.966L119.78 172.248L118.062 173.966ZM122.971 169.057L124.69 170.775L126.408 169.057L124.69 167.338L122.971 169.057ZM118.062 169.057L119.78 170.775L121.499 169.057L119.78 167.338L118.062 169.057ZM127.881 164.147L129.599 165.866L131.317 164.147L129.599 162.429L127.881 164.147ZM122.971 164.147L124.69 165.866L126.408 164.147L124.69 162.429L122.971 164.147Z" fill="#005AF4"/>
<path d="M182.203 98.3857V114.339L190.019 118.105L199.213 88.3486L182.203 98.3857Z" fill="#EFF5FF"/>
<path d="M182.837 113.941L189.63 117.214L198.124 89.7272L182.837 98.7474V113.941ZM190.019 118.739C189.924 118.739 189.83 118.718 189.743 118.675L181.928 114.911C181.709 114.805 181.569 114.583 181.569 114.339V98.3857C181.569 98.1608 181.687 97.9538 181.881 97.8396L198.891 87.8026C199.116 87.6699 199.401 87.6894 199.606 87.8516C199.812 88.0139 199.896 88.2853 199.819 88.5354L190.624 118.292C190.569 118.468 190.441 118.612 190.272 118.685C190.191 118.721 190.105 118.739 190.019 118.739Z" fill="#1A172D"/>
<path d="M176.928 106.326L234.438 73.2656C239.013 70.6243 242.722 63.5379 242.722 57.4371V43.0472C242.722 39.9511 245.745 39.8894 244.206 38.7729C244.081 38.6808 237.988 35.1832 237.854 35.1071C236.404 34.2805 234.516 34.3642 232.452 35.5551L174.943 68.6152C170.368 71.2565 166.659 78.3429 166.659 84.4437V98.8345C166.659 102.171 167.768 104.52 169.522 105.534C169.579 105.567 175.74 109.169 175.797 109.199C177.226 109.936 174.936 107.476 176.928 106.326Z" fill="#EFF5FF"/>
<path d="M235.742 35.1951C234.815 35.1951 233.815 35.501 232.77 36.1045L175.26 69.1646C170.868 71.7003 167.293 78.555 167.293 84.4429V98.8345C167.293 101.808 168.221 104.05 169.839 104.984L170.58 105.417C171.821 106.143 174.306 107.596 175.474 108.278C175.367 107.514 175.434 106.456 176.611 105.777L234.122 72.7162C238.514 70.1806 242.088 63.3266 242.088 57.438V43.0472C242.088 41.159 243.083 40.2073 243.677 39.6384C243.763 39.5556 243.871 39.4525 243.945 39.3722C243.917 39.3476 243.881 39.3189 243.834 39.2851C243.589 39.1313 237.881 35.8527 237.541 35.6583C237.001 35.3506 236.396 35.1951 235.742 35.1951ZM176.177 109.969C175.986 109.969 175.786 109.907 175.507 109.762C175.475 109.745 175.445 109.73 169.941 106.512L169.204 106.082C167.184 104.915 166.025 102.274 166.025 98.8345V84.4429C166.025 78.151 169.884 70.8043 174.626 68.0658L232.137 35.0057C234.32 33.7464 236.474 33.5908 238.168 34.5569C238.229 34.5916 244.407 38.1348 244.578 38.259C244.861 38.4644 245.241 38.7949 245.274 39.2885C245.311 39.8294 244.926 40.1979 244.553 40.5546C244.02 41.0651 243.356 41.7008 243.356 43.0472V57.438C243.356 63.7298 239.497 71.0765 234.755 73.815L177.244 106.875C176.565 107.267 176.646 107.837 176.833 108.599C176.931 108.993 177.022 109.365 176.769 109.688C176.63 109.866 176.413 109.969 176.177 109.969Z" fill="#1A172D"/>
<path d="M172.786 103.227L166.855 99.8378L172.786 103.227Z" fill="white"/>
<path d="M172.786 103.862C172.679 103.862 172.571 103.835 172.472 103.778L166.54 100.389C166.236 100.215 166.13 99.8276 166.304 99.5233C166.478 99.219 166.866 99.1151 167.169 99.2875L173.101 102.677C173.405 102.851 173.511 103.238 173.337 103.542C173.22 103.747 173.006 103.862 172.786 103.862Z" fill="#1A172D"/>
<path d="M173.315 83.0474L167.376 79.6546L173.315 83.0474Z" fill="white"/>
<path d="M173.314 83.6821C173.207 83.6821 173.099 83.6551 173 83.5985L167.062 80.2049C166.757 80.0316 166.652 79.6437 166.826 79.3402C167 79.0359 167.388 78.932 167.691 79.1036L173.629 82.4971C173.933 82.6712 174.039 83.0584 173.865 83.3626C173.748 83.5672 173.534 83.6821 173.314 83.6821Z" fill="#1A172D"/>
<path d="M179.126 73.433L173.088 69.9836L179.126 73.433Z" fill="white"/>
<path d="M179.125 74.0676C179.018 74.0676 178.91 74.0406 178.811 73.984L172.774 70.5337C172.47 70.3605 172.364 69.9725 172.538 69.6691C172.712 69.3648 173.1 69.2609 173.403 69.4333L179.44 72.8826C179.744 73.0567 179.85 73.4438 179.676 73.7481C179.559 73.9527 179.345 74.0676 179.125 74.0676Z" fill="#1A172D"/>
<path d="M235.763 40.7245L229.726 37.2743L235.763 40.7245Z" fill="white"/>
<path d="M235.762 41.3575C235.656 41.3575 235.548 41.3305 235.449 41.2747L229.411 37.8245C229.107 37.6512 229.001 37.2633 229.176 36.9598C229.35 36.6556 229.738 36.5516 230.04 36.7232L236.078 40.1734C236.382 40.3467 236.488 40.7346 236.313 41.038C236.196 41.2434 235.982 41.3575 235.762 41.3575Z" fill="#1A172D"/>
<path d="M181.073 72.1981L238.582 39.138C243.157 36.4967 246.866 39.3012 246.866 45.4012V59.7919C246.866 65.8919 243.157 72.9783 238.582 75.6204L205.311 94.6929L189.986 118.107V103.536L181.073 108.68C176.498 111.322 172.789 108.517 172.789 102.417V88.0266C172.789 81.9258 176.498 74.8395 181.073 72.1981Z" fill="white"/>
<path d="M189.986 102.903C190.095 102.903 190.205 102.93 190.303 102.987C190.499 103.1 190.62 103.31 190.62 103.536V115.981L204.78 94.3455C204.835 94.2619 204.908 94.1925 204.995 94.1427L238.267 75.0702C242.658 72.5345 246.232 65.6806 246.232 59.7919V45.4012C246.232 41.3779 244.52 38.778 241.871 38.778C240.944 38.778 239.944 39.0839 238.899 39.6874L181.388 72.7475C176.997 75.2832 173.423 82.1371 173.423 88.0266V102.417C173.423 106.441 175.135 109.041 177.783 109.041C178.711 109.041 179.711 108.735 180.756 108.131L189.669 102.987C189.767 102.93 189.877 102.903 189.986 102.903ZM189.986 118.741C189.926 118.741 189.864 118.733 189.805 118.715C189.536 118.635 189.352 118.388 189.352 118.107V104.634L181.39 109.229C180.149 109.945 178.936 110.308 177.783 110.308C174.365 110.308 172.155 107.211 172.155 102.417V88.0266C172.155 81.7339 176.014 74.3873 180.756 71.6487L238.266 38.5886C239.505 37.8736 240.719 37.5101 241.871 37.5101C245.291 37.5101 247.5 40.6079 247.5 45.4012V59.7919C247.5 66.0838 243.642 73.4313 238.899 76.169L205.758 95.1662L190.516 118.455C190.397 118.637 190.196 118.741 189.986 118.741Z" fill="#1A172D"/>
<path d="M215.142 72.1237L236.5 60.0006V62.0038L215.142 74.1268V72.1237Z" fill="#1A172D"/>
<path d="M203.362 70.5998L236.5 51.6753V53.6785L203.362 72.603V70.5998Z" fill="#005AF4"/>
<path d="M223.014 63.4171L236.5 55.838V57.8412L223.014 65.4203V63.4171Z" fill="#1A172D"/>
<path d="M221.041 64.5555V66.5587L194.467 81.9198V79.9166L221.041 64.5555Z" fill="#1A172D"/>
<path d="M213.17 73.2622V75.2662L197.868 84.1005V82.0973L213.17 73.2622Z" fill="#005AF4"/>
<path d="M201.39 73.7415L183.791 83.9205V81.9174L201.39 71.7383V73.7415Z" fill="#005AF4"/>
<path d="M192.495 83.0584L183.791 88.0841V86.0801L192.495 81.0552V83.0584Z" fill="#1A172D"/>
<path d="M195.896 85.2391L183.791 92.2468V90.2428L195.896 83.2359V85.2391Z" fill="#1A172D"/>
<path d="M236.5 66.1666L183.791 96.4095V94.4064L236.5 64.1634V66.1666Z" fill="#005AF4"/>
</g>
<defs>
<linearGradient id="paint0_linear_378_7897" x1="149.224" y1="144.813" x2="70.8481" y2="132.948" gradientUnits="userSpaceOnUse">
<stop stop-color="#C396D1"/>
<stop offset="0.010101" stop-color="#C396D1"/>
<stop offset="0.19697" stop-color="white"/>
<stop offset="0.358586" stop-color="#D2AADA"/>
<stop offset="0.611111" stop-color="#8259B2"/>
<stop offset="1" stop-color="#AE76C2"/>
</linearGradient>
<clipPath id="clip0_378_7897">
<rect x="0.5" width="295" height="168" rx="8" fill="white"/>
</clipPath>
</defs>
</svg>
