<svg width="40" height="40" viewBox="0 0 40 40" fill="none" xmlns="http://www.w3.org/2000/svg">
<path d="M20.4459 19.0909C20.4459 13.7115 16.4002 9.35059 11.4097 9.35059C6.41916 9.35059 2.37354 13.7115 2.37354 19.0909V30.2597C2.37354 35.6391 6.41916 40 11.4097 40C16.4002 40 20.4459 35.6391 20.4459 30.2597V19.0909Z" fill="#2B3A4C"/>
<path d="M20.4459 11.0389C20.4459 5.65945 16.4002 1.29858 11.4097 1.29858C6.41916 1.29858 2.37354 5.65945 2.37354 11.0389V19.3505C2.37354 24.7299 6.41916 29.0908 11.4097 29.0908C16.4002 29.0908 20.4459 24.7299 20.4459 19.3505V11.0389Z" fill="#2B3A4C"/>
<path d="M14.3047 5.19434L6.46138 10.6545C2.34057 13.5233 1.15747 19.4498 3.81884 23.8917C6.48022 28.3336 11.9783 29.6089 16.0991 26.7401L23.9424 21.2799C28.0632 18.4112 29.2463 12.4847 26.5849 8.04279C23.9235 3.60088 18.4255 2.32559 14.3047 5.19434Z" fill="#2B3A4C"/>
<path d="M12.6145 1.29852C7.62399 1.29852 3.57837 5.65939 3.57837 11.0388C3.57837 16.4182 7.62399 20.7791 12.6145 20.7791H29.9639C34.9544 20.7791 39.0001 16.4182 39.0001 11.0388C39.0001 5.65939 34.9544 1.29852 29.9639 1.29852H12.6145Z" fill="#2B3A4C"/>
<path d="M19.7231 34.2858L20.2049 32.8572L20.4459 31.8183L20.4459 23.7663C20.7969 21.9505 22.2815 20.6492 24.0021 20.6492H24.5423L31.2893 20.6493L32.7351 20.3896L34.3014 19.6103L35.8677 18.4415L37.3134 16.8831V32.3377V34.6754L37.193 35.7144C37.193 37.2746 36.1192 38.5926 34.684 38.7944L34.4219 38.8313H25.0243L15.5061 38.9611L16.229 38.5715L17.0724 37.9219L17.6748 37.2728L18.5183 36.3637L18.8797 35.7144L19.7231 34.2858Z" fill="#04B6F5"/>
<path d="M14.4116 16.6235L14.4001 10.8386L11.7398 15.6261H11.069L8.40874 10.9134V16.6235H6.98608V7.89624H8.22368L11.4275 13.6687L14.5967 7.89624H15.8227L15.8459 16.6235H14.4116Z" fill="white"/>
<path d="M28.1904 13.544V16.6235H26.6868V13.569L23.5061 7.89624H25.1138L27.4849 12.1477L29.8791 7.89624H31.3596L28.1904 13.544Z" fill="white"/>
<path d="M28.1871 33.6312C27.3698 33.6312 26.6295 33.44 25.9664 33.0577C25.311 32.667 24.7943 32.1309 24.4165 31.4493C24.0464 30.7678 23.8613 29.999 23.8613 29.1429C23.8613 28.2867 24.0502 27.5179 24.4281 26.8364C24.8059 26.1548 25.3225 25.6229 25.978 25.2405C26.6411 24.8499 27.3813 24.6545 28.1987 24.6545C28.8618 24.6545 29.4671 24.7792 30.0146 25.0286C30.5621 25.2779 31.0247 25.6395 31.4025 26.1132L30.431 27.0982C29.845 26.4166 29.124 26.0758 28.2681 26.0758C27.7129 26.0758 27.2156 26.2088 26.776 26.4748C26.3365 26.7325 25.9934 27.094 25.7466 27.5595C25.4999 28.0249 25.3765 28.5527 25.3765 29.1429C25.3765 29.733 25.4999 30.2608 25.7466 30.7262C25.9934 31.1917 26.3365 31.5574 26.776 31.8234C27.2156 32.081 27.7129 32.2099 28.2681 32.2099C29.124 32.2099 29.845 31.8649 30.431 31.1751L31.4025 32.1725C31.0247 32.6462 30.5582 33.0078 30.003 33.2571C29.4556 33.5065 28.8503 33.6312 28.1871 33.6312Z" fill="white"/>
<path d="M13.2941 31.4868H9.2459L8.44783 33.5066H6.89795L10.5413 24.7793H12.0218L15.6767 33.5066H14.1037L13.2941 31.4868ZM12.7967 30.2151L11.27 26.4001L9.75482 30.2151H12.7967Z" fill="white"/>
</svg>
