<svg width="24" height="24" viewBox="0 0 24 24" fill="none" xmlns="http://www.w3.org/2000/svg">
<path d="M10.0001 2.75C14.0041 2.75 17.2501 5.99594 17.2501 10C17.2501 11.7319 16.6428 13.3219 15.6296 14.5688L20.5304 19.4697C20.8233 19.7626 20.8233 20.2374 20.5304 20.5303C20.2641 20.7966 19.8475 20.8208 19.5539 20.6029L19.4697 20.5303L14.5689 15.6295C13.322 16.6427 11.7319 17.25 10.0001 17.25C5.996 17.25 2.75006 14.0041 2.75006 10C2.75006 5.99594 5.996 2.75 10.0001 2.75ZM10.0001 4.25C6.82442 4.25 4.25006 6.82436 4.25006 10C4.25006 13.1756 6.82442 15.75 10.0001 15.75C13.1757 15.75 15.7501 13.1756 15.7501 10C15.7501 6.82436 13.1757 4.25 10.0001 4.25Z" fill="#222222" fill-opacity="0.6"/>
</svg>
